<svg width="300" height="55" viewBox="0 0 300 55" fill="none" xmlns="http://www.w3.org/2000/svg">
<path d="M92.3262 14.4062V40H86.1738L77.1211 24.0742V40H70.9512V14.4062H77.1211L86.1738 30.332V14.4062H92.3262ZM102.205 20.9805V40H96.2637V20.9805H102.205ZM95.9121 16.0762C95.9121 15.2324 96.2168 14.541 96.8262 14.002C97.4355 13.4629 98.2266 13.1934 99.1992 13.1934C100.172 13.1934 100.963 13.4629 101.572 14.002C102.182 14.541 102.486 15.2324 102.486 16.0762C102.486 16.9199 102.182 17.6113 101.572 18.1504C100.963 18.6895 100.172 18.959 99.1992 18.959C98.2266 18.959 97.4355 18.6895 96.8262 18.1504C96.2168 17.6113 95.9121 16.9199 95.9121 16.0762ZM113.895 35.7812C114.445 35.7812 114.914 35.6816 115.301 35.4824C115.699 35.2715 115.998 34.9785 116.197 34.6035C116.408 34.2168 116.508 33.7539 116.496 33.2148H122.068C122.08 34.6445 121.729 35.8984 121.014 36.9766C120.311 38.043 119.35 38.875 118.131 39.4727C116.924 40.0586 115.559 40.3516 114.035 40.3516C112.547 40.3516 111.246 40.1113 110.133 39.6309C109.02 39.1387 108.088 38.459 107.338 37.5918C106.6 36.7129 106.043 35.6875 105.668 34.5156C105.305 33.3438 105.123 32.0723 105.123 30.7012V30.2969C105.123 28.9258 105.305 27.6543 105.668 26.4824C106.043 25.2988 106.6 24.2734 107.338 23.4062C108.088 22.5273 109.014 21.8477 110.115 21.3672C111.229 20.875 112.523 20.6289 114 20.6289C115.582 20.6289 116.977 20.9277 118.184 21.5254C119.402 22.123 120.357 22.9902 121.049 24.127C121.74 25.2637 122.08 26.6406 122.068 28.2578H116.496C116.508 27.6836 116.42 27.168 116.232 26.7109C116.045 26.2539 115.752 25.8906 115.354 25.6211C114.967 25.3398 114.469 25.1992 113.859 25.1992C113.25 25.1992 112.758 25.334 112.383 25.6035C112.008 25.873 111.721 26.248 111.521 26.7285C111.334 27.1973 111.205 27.7363 111.135 28.3457C111.076 28.9551 111.047 29.6055 111.047 30.2969V30.7012C111.047 31.4043 111.076 32.0664 111.135 32.6875C111.205 33.2969 111.34 33.8359 111.539 34.3047C111.738 34.7617 112.025 35.125 112.4 35.3945C112.775 35.6523 113.273 35.7812 113.895 35.7812ZM123.861 30.6836V30.3145C123.861 28.9199 124.061 27.6367 124.459 26.4648C124.857 25.2812 125.443 24.2559 126.217 23.3887C126.99 22.5215 127.945 21.8477 129.082 21.3672C130.219 20.875 131.531 20.6289 133.02 20.6289C134.52 20.6289 135.838 20.875 136.975 21.3672C138.123 21.8477 139.084 22.5215 139.857 23.3887C140.631 24.2559 141.217 25.2812 141.615 26.4648C142.014 27.6367 142.213 28.9199 142.213 30.3145V30.6836C142.213 32.0664 142.014 33.3496 141.615 34.5332C141.217 35.7051 140.631 36.7305 139.857 37.6094C139.084 38.4766 138.129 39.1504 136.992 39.6309C135.855 40.1113 134.543 40.3516 133.055 40.3516C131.566 40.3516 130.248 40.1113 129.1 39.6309C127.951 39.1504 126.99 38.4766 126.217 37.6094C125.443 36.7305 124.857 35.7051 124.459 34.5332C124.061 33.3496 123.861 32.0664 123.861 30.6836ZM129.785 30.3145V30.6836C129.785 31.3984 129.838 32.0664 129.943 32.6875C130.049 33.3086 130.225 33.8535 130.471 34.3223C130.717 34.7793 131.051 35.1367 131.473 35.3945C131.895 35.6523 132.422 35.7812 133.055 35.7812C133.676 35.7812 134.191 35.6523 134.602 35.3945C135.023 35.1367 135.357 34.7793 135.604 34.3223C135.85 33.8535 136.025 33.3086 136.131 32.6875C136.236 32.0664 136.289 31.3984 136.289 30.6836V30.3145C136.289 29.623 136.236 28.9727 136.131 28.3633C136.025 27.7422 135.85 27.1973 135.604 26.7285C135.357 26.248 135.023 25.873 134.602 25.6035C134.18 25.334 133.652 25.1992 133.02 25.1992C132.398 25.1992 131.877 25.334 131.455 25.6035C131.045 25.873 130.717 26.248 130.471 26.7285C130.225 27.1973 130.049 27.7422 129.943 28.3633C129.838 28.9727 129.785 29.623 129.785 30.3145ZM151.107 13V40H145.166V13H151.107ZM164.643 35.2188V27.3789C164.643 26.8398 164.566 26.377 164.414 25.9902C164.262 25.6035 164.021 25.3047 163.693 25.0938C163.365 24.8711 162.926 24.7598 162.375 24.7598C161.93 24.7598 161.549 24.8359 161.232 24.9883C160.916 25.1406 160.676 25.3691 160.512 25.6738C160.348 25.9785 160.266 26.3652 160.266 26.834H154.342C154.342 25.9551 154.535 25.1406 154.922 24.3906C155.32 23.6289 155.883 22.9668 156.609 22.4043C157.348 21.8418 158.227 21.4082 159.246 21.1035C160.277 20.7871 161.426 20.6289 162.691 20.6289C164.203 20.6289 165.551 20.8809 166.734 21.3848C167.93 21.8887 168.873 22.6445 169.564 23.6523C170.256 24.6484 170.602 25.9023 170.602 27.4141V35.2012C170.602 36.4434 170.672 37.3867 170.812 38.0312C170.953 38.6641 171.152 39.2207 171.41 39.7012V40H165.469C165.188 39.4141 164.977 38.6992 164.836 37.8555C164.707 37 164.643 36.1211 164.643 35.2188ZM165.363 28.3809L165.398 31.5449H162.779C162.229 31.5449 161.76 31.6211 161.373 31.7734C160.998 31.9258 160.693 32.1367 160.459 32.4062C160.236 32.6641 160.072 32.957 159.967 33.2852C159.873 33.6133 159.826 33.959 159.826 34.3223C159.826 34.6738 159.908 34.9902 160.072 35.2715C160.248 35.541 160.482 35.752 160.775 35.9043C161.068 36.0566 161.396 36.1328 161.76 36.1328C162.416 36.1328 162.973 36.0098 163.43 35.7637C163.898 35.5059 164.256 35.1953 164.502 34.832C164.748 34.4688 164.871 34.1289 164.871 33.8125L166.172 36.2383C165.938 36.707 165.668 37.1816 165.363 37.6621C165.07 38.1426 164.701 38.5879 164.256 38.998C163.822 39.3965 163.289 39.7246 162.656 39.9824C162.023 40.2285 161.256 40.3516 160.354 40.3516C159.182 40.3516 158.104 40.1113 157.119 39.6309C156.146 39.1504 155.367 38.4824 154.781 37.627C154.195 36.7598 153.902 35.7637 153.902 34.6387C153.902 33.6543 154.078 32.7754 154.43 32.002C154.793 31.2285 155.338 30.5723 156.064 30.0332C156.791 29.4941 157.717 29.084 158.842 28.8027C159.967 28.5215 161.291 28.3809 162.814 28.3809H165.363ZM183.855 34.6562C183.855 34.3281 183.744 34.0469 183.521 33.8125C183.311 33.5664 182.936 33.3438 182.396 33.1445C181.857 32.9336 181.102 32.7227 180.129 32.5117C179.203 32.3125 178.33 32.0488 177.51 31.7207C176.701 31.3926 175.992 30.9941 175.383 30.5254C174.773 30.0566 174.293 29.5 173.941 28.8555C173.602 28.2109 173.432 27.4727 173.432 26.6406C173.432 25.832 173.602 25.0703 173.941 24.3555C174.293 23.6289 174.803 22.9902 175.471 22.4395C176.15 21.877 176.977 21.4375 177.949 21.1211C178.922 20.793 180.029 20.6289 181.271 20.6289C182.982 20.6289 184.459 20.8926 185.701 21.4199C186.943 21.9355 187.898 22.6621 188.566 23.5996C189.246 24.5254 189.586 25.5977 189.586 26.8164H183.662C183.662 26.3359 183.58 25.9258 183.416 25.5859C183.264 25.2461 183.012 24.9883 182.66 24.8125C182.309 24.625 181.84 24.5312 181.254 24.5312C180.844 24.5312 180.469 24.6074 180.129 24.7598C179.801 24.9121 179.537 25.123 179.338 25.3926C179.139 25.6621 179.039 25.9785 179.039 26.3418C179.039 26.5996 179.098 26.834 179.215 27.0449C179.344 27.2441 179.537 27.4316 179.795 27.6074C180.053 27.7715 180.381 27.9238 180.779 28.0645C181.178 28.1934 181.658 28.3105 182.221 28.416C183.498 28.6504 184.693 28.9844 185.807 29.418C186.92 29.8516 187.822 30.4668 188.514 31.2637C189.217 32.0605 189.568 33.1328 189.568 34.4805C189.568 35.3242 189.375 36.1035 188.988 36.8184C188.602 37.5215 188.045 38.1426 187.318 38.6816C186.592 39.209 185.719 39.6191 184.699 39.9121C183.68 40.2051 182.531 40.3516 181.254 40.3516C179.438 40.3516 177.902 40.0293 176.648 39.3848C175.395 38.7285 174.445 37.9082 173.801 36.9238C173.168 35.9277 172.852 34.9199 172.852 33.9004H178.371C178.395 34.4863 178.535 34.9668 178.793 35.3418C179.062 35.7168 179.42 35.9922 179.865 36.168C180.311 36.3438 180.826 36.4316 181.412 36.4316C181.951 36.4316 182.396 36.3555 182.748 36.2031C183.111 36.0508 183.387 35.8457 183.574 35.5879C183.762 35.3184 183.855 35.0078 183.855 34.6562ZM211.805 31.3164H205.441V26.5527H211.805C212.672 26.5527 213.375 26.4062 213.914 26.1133C214.453 25.8203 214.846 25.416 215.092 24.9004C215.35 24.373 215.479 23.7812 215.479 23.125C215.479 22.4219 215.35 21.7715 215.092 21.1738C214.846 20.5762 214.453 20.0957 213.914 19.7324C213.375 19.3574 212.672 19.1699 211.805 19.1699H207.762V40H201.592V14.4062H211.805C213.855 14.4062 215.619 14.7812 217.096 15.5312C218.584 16.2812 219.727 17.3125 220.523 18.625C221.32 19.9258 221.719 21.4141 221.719 23.0898C221.719 24.7422 221.32 26.1836 220.523 27.4141C219.727 28.6445 218.584 29.6055 217.096 30.2969C215.619 30.9766 213.855 31.3164 211.805 31.3164ZM234.428 35.2188V27.3789C234.428 26.8398 234.352 26.377 234.199 25.9902C234.047 25.6035 233.807 25.3047 233.479 25.0938C233.15 24.8711 232.711 24.7598 232.16 24.7598C231.715 24.7598 231.334 24.8359 231.018 24.9883C230.701 25.1406 230.461 25.3691 230.297 25.6738C230.133 25.9785 230.051 26.3652 230.051 26.834H224.127C224.127 25.9551 224.32 25.1406 224.707 24.3906C225.105 23.6289 225.668 22.9668 226.395 22.4043C227.133 21.8418 228.012 21.4082 229.031 21.1035C230.062 20.7871 231.211 20.6289 232.477 20.6289C233.988 20.6289 235.336 20.8809 236.52 21.3848C237.715 21.8887 238.658 22.6445 239.35 23.6523C240.041 24.6484 240.387 25.9023 240.387 27.4141V35.2012C240.387 36.4434 240.457 37.3867 240.598 38.0312C240.738 38.6641 240.938 39.2207 241.195 39.7012V40H235.254C234.973 39.4141 234.762 38.6992 234.621 37.8555C234.492 37 234.428 36.1211 234.428 35.2188ZM235.148 28.3809L235.184 31.5449H232.564C232.014 31.5449 231.545 31.6211 231.158 31.7734C230.783 31.9258 230.479 32.1367 230.244 32.4062C230.021 32.6641 229.857 32.957 229.752 33.2852C229.658 33.6133 229.611 33.959 229.611 34.3223C229.611 34.6738 229.693 34.9902 229.857 35.2715C230.033 35.541 230.268 35.752 230.561 35.9043C230.854 36.0566 231.182 36.1328 231.545 36.1328C232.201 36.1328 232.758 36.0098 233.215 35.7637C233.684 35.5059 234.041 35.1953 234.287 34.832C234.533 34.4688 234.656 34.1289 234.656 33.8125L235.957 36.2383C235.723 36.707 235.453 37.1816 235.148 37.6621C234.855 38.1426 234.486 38.5879 234.041 38.998C233.607 39.3965 233.074 39.7246 232.441 39.9824C231.809 40.2285 231.041 40.3516 230.139 40.3516C228.967 40.3516 227.889 40.1113 226.904 39.6309C225.932 39.1504 225.152 38.4824 224.566 37.627C223.98 36.7598 223.688 35.7637 223.688 34.6387C223.688 33.6543 223.863 32.7754 224.215 32.002C224.578 31.2285 225.123 30.5723 225.85 30.0332C226.576 29.4941 227.502 29.084 228.627 28.8027C229.752 28.5215 231.076 28.3809 232.6 28.3809H235.148ZM248.701 20.9805L251.373 26.2188L254.133 20.9805H260.285L255.293 30.2441L260.549 40H254.344L251.373 34.375L248.42 40H242.215L247.471 30.2441L242.496 20.9805H248.701ZM272.115 35.2188V27.3789C272.115 26.8398 272.039 26.377 271.887 25.9902C271.734 25.6035 271.494 25.3047 271.166 25.0938C270.838 24.8711 270.398 24.7598 269.848 24.7598C269.402 24.7598 269.021 24.8359 268.705 24.9883C268.389 25.1406 268.148 25.3691 267.984 25.6738C267.82 25.9785 267.738 26.3652 267.738 26.834H261.814C261.814 25.9551 262.008 25.1406 262.395 24.3906C262.793 23.6289 263.355 22.9668 264.082 22.4043C264.82 21.8418 265.699 21.4082 266.719 21.1035C267.75 20.7871 268.898 20.6289 270.164 20.6289C271.676 20.6289 273.023 20.8809 274.207 21.3848C275.402 21.8887 276.346 22.6445 277.037 23.6523C277.729 24.6484 278.074 25.9023 278.074 27.4141V35.2012C278.074 36.4434 278.145 37.3867 278.285 38.0312C278.426 38.6641 278.625 39.2207 278.883 39.7012V40H272.941C272.66 39.4141 272.449 38.6992 272.309 37.8555C272.18 37 272.115 36.1211 272.115 35.2188ZM272.836 28.3809L272.871 31.5449H270.252C269.701 31.5449 269.232 31.6211 268.846 31.7734C268.471 31.9258 268.166 32.1367 267.932 32.4062C267.709 32.6641 267.545 32.957 267.439 33.2852C267.346 33.6133 267.299 33.959 267.299 34.3223C267.299 34.6738 267.381 34.9902 267.545 35.2715C267.721 35.541 267.955 35.752 268.248 35.9043C268.541 36.0566 268.869 36.1328 269.232 36.1328C269.889 36.1328 270.445 36.0098 270.902 35.7637C271.371 35.5059 271.729 35.1953 271.975 34.832C272.221 34.4688 272.344 34.1289 272.344 33.8125L273.645 36.2383C273.41 36.707 273.141 37.1816 272.836 37.6621C272.543 38.1426 272.174 38.5879 271.729 38.998C271.295 39.3965 270.762 39.7246 270.129 39.9824C269.496 40.2285 268.729 40.3516 267.826 40.3516C266.654 40.3516 265.576 40.1113 264.592 39.6309C263.619 39.1504 262.84 38.4824 262.254 37.627C261.668 36.7598 261.375 35.7637 261.375 34.6387C261.375 33.6543 261.551 32.7754 261.902 32.002C262.266 31.2285 262.811 30.5723 263.537 30.0332C264.264 29.4941 265.189 29.084 266.314 28.8027C267.439 28.5215 268.764 28.3809 270.287 28.3809H272.836ZM273.486 12.9648L276.756 13.1582C276.756 14.0137 276.58 14.8047 276.229 15.5312C275.889 16.2578 275.414 16.8438 274.805 17.2891C274.195 17.7344 273.492 17.957 272.695 17.957C272.156 17.957 271.676 17.8867 271.254 17.7461C270.844 17.5938 270.457 17.418 270.094 17.2188C269.742 17.0195 269.379 16.8496 269.004 16.709C268.641 16.5566 268.236 16.4805 267.791 16.4805C267.428 16.4805 267.111 16.6094 266.842 16.8672C266.584 17.125 266.455 17.5234 266.455 18.0625L263.15 17.8867C263.15 17.0547 263.32 16.2754 263.66 15.5488C264.012 14.8105 264.492 14.2187 265.102 13.7734C265.711 13.3164 266.414 13.0879 267.211 13.0879C267.668 13.0879 268.102 13.1641 268.512 13.3164C268.922 13.457 269.32 13.627 269.707 13.8262C270.094 14.0137 270.48 14.1836 270.867 14.3359C271.266 14.4766 271.676 14.5469 272.098 14.5469C272.473 14.5469 272.795 14.418 273.064 14.1602C273.346 13.9023 273.486 13.5039 273.486 12.9648ZM280.623 30.6836V30.3145C280.623 28.9199 280.822 27.6367 281.221 26.4648C281.619 25.2812 282.205 24.2559 282.979 23.3887C283.752 22.5215 284.707 21.8477 285.844 21.3672C286.98 20.875 288.293 20.6289 289.781 20.6289C291.281 20.6289 292.6 20.875 293.736 21.3672C294.885 21.8477 295.846 22.5215 296.619 23.3887C297.393 24.2559 297.979 25.2812 298.377 26.4648C298.775 27.6367 298.975 28.9199 298.975 30.3145V30.6836C298.975 32.0664 298.775 33.3496 298.377 34.5332C297.979 35.7051 297.393 36.7305 296.619 37.6094C295.846 38.4766 294.891 39.1504 293.754 39.6309C292.617 40.1113 291.305 40.3516 289.816 40.3516C288.328 40.3516 287.01 40.1113 285.861 39.6309C284.713 39.1504 283.752 38.4766 282.979 37.6094C282.205 36.7305 281.619 35.7051 281.221 34.5332C280.822 33.3496 280.623 32.0664 280.623 30.6836ZM286.547 30.3145V30.6836C286.547 31.3984 286.6 32.0664 286.705 32.6875C286.811 33.3086 286.986 33.8535 287.232 34.3223C287.479 34.7793 287.812 35.1367 288.234 35.3945C288.656 35.6523 289.184 35.7812 289.816 35.7812C290.438 35.7812 290.953 35.6523 291.363 35.3945C291.785 35.1367 292.119 34.7793 292.365 34.3223C292.611 33.8535 292.787 33.3086 292.893 32.6875C292.998 32.0664 293.051 31.3984 293.051 30.6836V30.3145C293.051 29.623 292.998 28.9727 292.893 28.3633C292.787 27.7422 292.611 27.1973 292.365 26.7285C292.119 26.248 291.785 25.873 291.363 25.6035C290.941 25.334 290.414 25.1992 289.781 25.1992C289.16 25.1992 288.639 25.334 288.217 25.6035C287.807 25.873 287.479 26.248 287.232 26.7285C286.986 27.1973 286.811 27.7422 286.705 28.3633C286.6 28.9727 286.547 29.623 286.547 30.3145Z" fill="#445964"/>
<path d="M45.6238 10.5052L29.4558 1.1809C26.7256 -0.393688 23.3331 -0.39358 20.6028 1.1809L4.43491 10.5052C1.69931 12.0827 0 15.0247 0 18.1829V36.817C0 39.9752 1.69931 42.9172 4.4348 44.4947L20.6028 53.819C23.3335 55.3939 26.7259 55.3934 29.4558 53.819L45.6237 44.4947C48.3593 42.9172 50.0586 39.9752 50.0586 36.817V18.1829C50.0586 15.0248 48.3593 12.0828 45.6238 10.5052ZM45.7617 36.817C45.7617 38.4438 44.8864 39.9592 43.4773 40.7718L27.3093 50.0961C25.9029 50.9073 24.1556 50.9073 22.7492 50.0961L6.5812 40.7718C5.17215 39.9591 4.29688 38.4438 4.29688 36.817V18.1829C4.29688 16.5562 5.17215 15.0408 6.58131 14.2283L22.7492 4.90393C24.1557 4.09268 25.9035 4.093 27.3094 4.90393L43.4774 14.2281C44.8864 15.0408 45.7617 16.5561 45.7617 18.1829V36.817Z" fill="#445964"/>
<path d="M22.9876 25.8596L15.0082 19.1067C14.1026 18.3401 12.7468 18.453 11.9803 19.359C11.2139 20.265 11.3269 21.6208 12.2327 22.3874L18.2739 27.5L12.2327 32.6125C11.3269 33.3791 11.214 34.7349 11.9803 35.6409C12.7486 36.5488 14.1047 36.6578 15.0082 35.8931L22.9876 29.1402C24.0028 28.2812 23.9999 26.7163 22.9876 25.8596Z" fill="#445964"/>
<path d="M36.4382 32.104H26.7707C25.5841 32.104 24.6223 33.066 24.6223 34.2528C24.6223 35.4396 25.5841 36.4015 26.7707 36.4015H36.4382C37.6246 36.4015 38.5866 35.4396 38.5866 34.2528C38.5866 33.066 37.6247 32.104 36.4382 32.104Z" fill="#445964"/>
</svg>
